<svg width="99" height="37" viewBox="0 0 99 37" fill="none" xmlns="http://www.w3.org/2000/svg">
<g clip-path="url(#clip0)">
<path d="M7.47111 11.1921C7.27832 11.1921 7.23012 11.0956 7.32652 10.9509L8.33869 9.64843C8.43509 9.50371 8.67608 9.40723 8.86888 9.40723H26.0758C26.2686 9.40723 26.3168 9.55195 26.2204 9.69667L25.401 10.9509C25.3046 11.0956 25.0636 11.2403 24.919 11.2403L7.47111 11.1921Z" fill="#00ACD7"/>
<path d="M0.192795 15.6296C0 15.6296 -0.0481986 15.5331 0.0481986 15.3884L1.06037 14.0859C1.15677 13.9412 1.39776 13.8447 1.59056 13.8447H23.5691C23.7619 13.8447 23.8583 13.9894 23.8101 14.1342L23.4245 15.2919C23.3763 15.4849 23.1835 15.5814 22.9908 15.5814L0.192795 15.6296Z" fill="#00ACD7"/>
<path d="M11.8569 20.0681C11.6641 20.0681 11.6159 19.9234 11.7123 19.7786L12.387 18.5726C12.4834 18.4279 12.6762 18.2832 12.869 18.2832H22.5088C22.7016 18.2832 22.7979 18.4279 22.7979 18.6209L22.7016 19.7786C22.7016 19.9716 22.5088 20.1163 22.3642 20.1163L11.8569 20.0681Z" fill="#00ACD7"/>
<path d="M61.887 10.3233C58.8505 11.0951 56.7779 11.674 53.7896 12.4458C53.0666 12.6388 53.0184 12.687 52.3919 11.9635C51.6689 11.1434 51.1387 10.6127 50.1265 10.1303C47.09 8.6349 44.1499 9.06906 41.4026 10.8539C38.1251 12.9765 36.4381 16.1121 36.4863 20.0195C36.5345 23.8787 39.1854 27.0625 42.9931 27.5932C46.2706 28.0273 49.018 26.8696 51.1869 24.4093C51.6207 23.8787 52.0063 23.2998 52.4883 22.6245C50.7531 22.6245 48.5842 22.6245 43.1859 22.6245C42.1737 22.6245 41.9328 21.9974 42.2701 21.1773C42.8967 19.6818 44.0535 17.1734 44.7283 15.9191C44.8729 15.6297 45.2103 15.1473 45.9332 15.1473C48.3914 15.1473 57.4527 15.1473 63.4775 15.1473C63.3811 16.4498 63.3812 17.7522 63.1884 19.0547C62.6582 22.528 61.3568 25.7118 59.2361 28.5097C55.7658 33.0925 51.2351 35.9387 45.4995 36.7105C40.776 37.3376 36.3899 36.4211 32.534 33.5267C28.9673 30.8252 26.943 27.2555 26.4128 22.8174C25.7862 17.5593 27.3286 12.8318 30.5097 8.68314C33.9318 4.19683 38.4625 1.35067 44.0053 0.337637C48.536 -0.482441 52.8738 0.0481974 56.7779 2.70139C59.3325 4.38979 61.164 6.7053 62.369 9.50322C62.6582 9.93738 62.4654 10.1786 61.887 10.3233Z" fill="#00ACD7"/>
<path d="M77.8405 37.0005C73.4544 36.904 69.4539 35.6498 66.08 32.7554C63.2363 30.2952 61.453 27.1596 60.8746 23.4451C60.007 17.994 61.5012 13.17 64.7787 8.87667C68.2972 4.24564 72.5386 1.83365 78.2743 0.820608C83.1905 -0.0477101 87.8176 0.434689 92.0109 3.28084C95.8186 5.8858 98.1803 9.40731 98.8069 14.0383C99.6263 20.5507 97.7465 25.8571 93.264 30.3917C90.0829 33.6237 86.1788 35.6498 81.6964 36.5664C80.395 36.8076 79.0937 36.8558 77.8405 37.0005ZM89.3118 17.5116C89.2636 16.8845 89.2636 16.4021 89.1672 15.9197C88.2996 11.1439 83.9135 8.44251 79.3346 9.50379C74.8522 10.5168 71.9603 13.363 70.8999 17.8975C70.0323 21.6602 71.8639 25.4712 75.3342 27.0149C77.9851 28.1726 80.636 28.0279 83.1905 26.7254C86.9982 24.7476 89.0708 21.6602 89.3118 17.5116Z" fill="#00ACD7"/>
</g>
<defs>
<clipPath id="clip0">
<rect width="99" height="37" fill="white"/>
</clipPath>
</defs>
</svg>
