<svg width="77" height="115" viewBox="0 0 77 115" fill="none" xmlns="http://www.w3.org/2000/svg">
<path fill-rule="evenodd" clip-rule="evenodd" d="M2.9841 61.7666C3.12665 65.0042 6.06243 63.5061 7.39216 62.494C8.65435 61.533 9.02339 62.3318 9.13422 60.4354C9.2068 59.1889 9.33722 57.9425 9.27303 56.6911C7.36436 56.5005 5.28832 57.0013 3.7235 58.2537C2.91749 58.8989 1.40622 60.9583 2.9841 61.7666Z" fill="#F6D2A2" stroke="black" stroke-width="3" stroke-linecap="round"/>
<path fill-rule="evenodd" clip-rule="evenodd" d="M2.98389 61.7667C3.41115 61.5916 3.86397 61.4672 4.15391 61.0415Z" fill="#C6B198"/>
<path d="M2.98389 61.7667C3.41115 61.5916 3.86397 61.4672 4.15391 61.0415" stroke="black" stroke-width="3" stroke-linecap="round"/>
<path fill-rule="evenodd" clip-rule="evenodd" d="M9.7685 23.1969C-1.4815 19.7116 6.88384 3.9442 15.9179 10.4295L9.7685 23.1969Z" fill="#6AD7E5" stroke="black" stroke-width="3" stroke-linecap="round"/>
<path fill-rule="evenodd" clip-rule="evenodd" d="M59.752 9.24641C68.6567 2.35573 76.7035 17.9024 66.3545 21.814L59.752 9.24641Z" fill="#6AD7E5" stroke="black" stroke-width="3" stroke-linecap="round"/>
<path fill-rule="evenodd" clip-rule="evenodd" d="M61.6675 101.613C63.9293 103.155 68.0637 107.817 64.6706 110.077C61.4104 113.366 59.5856 106.468 56.7241 105.512C57.9565 103.668 59.5185 101.987 61.6675 101.613Z" fill="#F6D2A2" stroke="black" stroke-width="3" stroke-linecap="round"/>
<path d="M64.6706 110.077C64.1676 108.975 63.9987 107.689 63.1589 106.801" stroke="black" stroke-width="3" stroke-linecap="round"/>
<path fill-rule="evenodd" clip-rule="evenodd" d="M21.2583 106.881C18.6035 107.334 17.1093 109.973 14.8961 111.313C12.8105 112.683 12.0127 110.874 11.8249 110.507C11.498 110.343 11.5254 110.66 11.0209 110.1C9.08759 106.738 13.0354 104.281 15.0911 102.611C17.9543 101.974 19.7486 104.708 21.2583 106.881Z" fill="#F6D2A2" stroke="black" stroke-width="3" stroke-linecap="round"/>
<path d="M11.825 110.507C11.9261 109.225 12.8481 108.367 13.2873 107.284" stroke="black" stroke-width="3" stroke-linecap="round"/>
<path fill-rule="evenodd" clip-rule="evenodd" d="M10.238 18.8423C8.75378 17.9774 7.66492 16.8027 8.5728 14.9114C9.41332 13.1605 10.9748 13.3506 12.4592 14.2156L10.238 18.8423Z" fill="black"/>
<path fill-rule="evenodd" clip-rule="evenodd" d="M64.0098 17.1978C65.494 16.3329 66.5828 15.1581 65.675 13.2669C64.8344 11.516 63.273 11.7061 61.7886 12.5711L64.0098 17.1978Z" fill="black"/>
<path fill-rule="evenodd" clip-rule="evenodd" d="M74.2266 61.3554C74.084 64.5931 71.1483 63.095 69.8185 62.0829C68.5563 61.1219 68.1873 61.9207 68.0765 60.0243C68.0039 58.7778 67.8735 57.5314 67.9377 56.28C69.8463 56.0894 71.9224 56.5901 73.4872 57.8426C74.293 58.4878 75.8045 60.5472 74.2266 61.3554Z" fill="#F6D2A2" stroke="black" stroke-width="3" stroke-linecap="round"/>
<path fill-rule="evenodd" clip-rule="evenodd" d="M74.2267 61.3556C73.7994 61.1804 73.3466 61.0561 73.0566 60.6304Z" fill="#C6B198"/>
<path d="M74.2267 61.3556C73.7994 61.1804 73.3466 61.0561 73.0566 60.6304" stroke="black" stroke-width="3" stroke-linecap="round"/>
<path fill-rule="evenodd" clip-rule="evenodd" d="M37.4779 2.69751C48.7406 2.69751 59.2985 4.47203 64.8024 16.3932C69.7425 29.7552 67.9857 44.1639 68.7391 58.2857C69.3862 70.4115 70.8208 84.4205 65.7147 95.6573C60.3432 107.479 46.9209 110.453 35.8625 110.018C27.1764 109.675 16.6836 106.553 11.7813 97.8102C6.02986 87.5533 8.75276 72.3018 9.1705 60.8888C9.6653 47.3695 5.84664 33.8091 9.878 20.58C14.0601 6.85683 25.339 3.75548 37.4779 2.69751Z" fill="#6AD7E5" stroke="black" stroke-width="3" stroke-linecap="round"/>
<path fill-rule="evenodd" clip-rule="evenodd" d="M39.4663 19.3547C41.4884 32.3051 60.7028 28.881 57.943 15.8199C55.4682 4.10759 38.7942 7.34954 39.4663 19.3547Z" fill="white" stroke="black" stroke-width="2.9081" stroke-linecap="round"/>
<path fill-rule="evenodd" clip-rule="evenodd" d="M16.5051 21.4491C19.1259 32.7236 35.5105 29.837 34.8929 18.5276C34.153 4.98284 13.9994 7.59642 16.5051 21.4491Z" fill="white" stroke="black" stroke-width="2.8214" stroke-linecap="round"/>
<path fill-rule="evenodd" clip-rule="evenodd" d="M41.7845 34.8948C41.793 36.5785 42.1317 38.4687 41.8427 40.2599C41.4525 41.0722 40.6872 41.1581 40.0275 41.4864C39.1151 41.3287 38.3479 40.6687 37.982 39.7285C37.7479 37.6841 38.0694 35.7047 38.1285 33.6594L41.7845 34.8948Z" fill="white" stroke="black" stroke-width="3" stroke-linecap="round"/>
<path d="M21.0241 22.912C22.5521 22.912 23.7908 21.4338 23.7908 19.6104C23.7908 17.787 22.5521 16.3088 21.0241 16.3088C19.496 16.3088 18.2573 17.787 18.2573 19.6104C18.2573 21.4338 19.496 22.912 21.0241 22.912Z" fill="black"/>
<path d="M22.2826 21.1945C22.6429 21.1945 22.9349 20.8188 22.9349 20.3554C22.9349 19.892 22.6429 19.5164 22.2826 19.5164C21.9224 19.5164 21.6304 19.892 21.6304 20.3554C21.6304 20.8188 21.9224 21.1945 22.2826 21.1945Z" fill="white"/>
<path d="M44.2058 22.0897C45.7083 22.0897 46.9264 20.6115 46.9264 18.7881C46.9264 16.9647 45.7083 15.4866 44.2058 15.4866C42.7032 15.4866 41.4851 16.9647 41.4851 18.7881C41.4851 20.6115 42.7032 22.0897 44.2058 22.0897Z" fill="black"/>
<path d="M45.4435 20.3722C45.7977 20.3722 46.0849 19.9966 46.0849 19.5332C46.0849 19.0698 45.7977 18.6941 45.4435 18.6941C45.0892 18.6941 44.802 19.0698 44.802 19.5332C44.802 19.9966 45.0892 20.3722 45.4435 20.3722Z" fill="white"/>
<path fill-rule="evenodd" clip-rule="evenodd" d="M33.878 34.7114C32.6709 37.9345 34.5512 44.3795 37.8265 39.6257C37.5924 37.5813 37.9139 35.6019 37.973 33.5566L33.878 34.7114Z" fill="white" stroke="black" stroke-width="3" stroke-linecap="round"/>
<path fill-rule="evenodd" clip-rule="evenodd" d="M34.2911 28.5044C32.0411 28.7157 30.2021 31.6629 31.3719 33.9945C32.921 37.0827 36.3789 33.7213 38.5325 34.0362C41.0112 34.0921 43.0421 36.9236 45.0328 34.548C47.2469 31.9059 44.0796 29.3326 41.6041 28.1821L34.2911 28.5044Z" fill="#F6D2A2" stroke="#231F20" stroke-width="3" stroke-linecap="round"/>
<path fill-rule="evenodd" clip-rule="evenodd" d="M34.0079 28.3753C33.8413 24.0812 41.2729 23.5443 42.1505 27.1387C43.0259 30.7248 34.3738 31.5577 34.0079 28.3753C34.0079 28.3753 33.716 25.8341 34.0079 28.3753Z" fill="black"/>
</svg>
