<svg width="199" height="120" viewBox="0 0 199 120" fill="none" xmlns="http://www.w3.org/2000/svg">
<path d="M46.9487 31.2984H84.4811V34.2804H50.3888V56.7231H82.448V59.7049H50.3888V84.345H84.8723V87.3268H46.9487V31.2984ZM87.8433 31.2984H91.8316L109.503 55.9384L127.566 31.2984L152.134 0L111.771 58.5279L132.57 87.3268H128.426L109.503 61.1174L90.5024 87.3268H86.4363L107.392 58.5279L87.8433 31.2984ZM134.056 34.2804V31.2984H176.827V34.2804H157.123V87.3268H153.682V34.2804H134.056Z" fill="white"/>
<path d="M0 31.2953H4.30028L63.6038 120L39.0964 87.324L3.59709 35.5327L3.44075 87.324H0V31.2953Z" fill="white"/>
<path d="M176.49 83.4458C177.201 83.4458 177.72 82.9016 177.72 82.1979C177.72 81.4942 177.201 80.95 176.49 80.95C175.787 80.95 175.26 81.4942 175.26 82.1979C175.26 82.9016 175.787 83.4458 176.49 83.4458ZM179.871 80.1628C179.871 82.24 181.368 83.5968 183.552 83.5968C185.879 83.5968 187.285 82.1979 187.285 79.7688V71.2174H185.41V79.7604C185.41 81.1087 184.733 81.8292 183.536 81.8292C182.465 81.8292 181.737 81.1593 181.712 80.1628H179.871ZM189.737 80.0539C189.87 82.2148 191.67 83.5968 194.348 83.5968C197.209 83.5968 199 82.1474 199 79.8362C199 78.0187 197.979 77.0132 195.502 76.4352L194.172 76.1087C192.598 75.7406 191.962 75.2463 191.962 74.3832C191.962 73.2947 192.95 72.5826 194.431 72.5826C195.837 72.5826 196.807 73.2778 196.983 74.3916H198.808C198.699 72.3565 196.908 70.9246 194.456 70.9246C191.82 70.9246 190.063 72.3565 190.063 74.5089C190.063 76.2849 191.059 77.3404 193.243 77.8509L194.799 78.228C196.398 78.6045 197.101 79.1578 197.101 80.0785C197.101 81.1508 195.996 81.9297 194.49 81.9297C192.875 81.9297 191.753 81.2014 191.595 80.0539H189.737Z" fill="white"/>
</svg>
