<svg width="76" height="138" viewBox="0 0 76 138" fill="none" xmlns="http://www.w3.org/2000/svg">
<g clip-path="url(#clip0)">
<path d="M37.395 0.220468C30.8902 7.98429 25.1355 16.686 21.297 27.7832C20.9285 29.0748 20.8883 29.5941 20.8218 31.2329C20.8658 63.9897 21.92 96.9152 22.4534 129.754H53.3432C53.8819 96.9002 55.0591 64.685 54.9822 31.2152C54.9373 29.2891 54.7449 28.5504 54.4799 27.8145C50.5485 17.0711 45.0248 8.05314 38.4063 0.220468C37.9975 -0.0338488 37.8381 -0.101086 37.3949 0.221284L37.395 0.220468Z" fill="#BD4A4A"/>
<path d="M37.0059 43.5219C35.6246 46.0015 34.6218 48.8597 33.4424 51.5413L29.773 59.7987C29.0914 61.6168 29.0926 62.499 28.9858 63.3804V129.753H46.8121V63.3804C46.7981 61.4423 46.4034 60.7785 46.0154 59.7773L42.3556 51.5413C41.1711 48.8717 40.233 46.3253 38.7952 43.529C37.7641 41.6967 37.884 42.1634 37.0059 43.5219L37.0059 43.5219Z" fill="#E6E6E6"/>
<path d="M33.1958 62.8221C36.7921 60.4423 40.1837 61.2215 42.6025 62.8221L41.6195 65.1741C38.484 63.9127 37.4011 63.8868 34.2656 65.183L33.1958 62.8221Z" fill="#263248"/>
<path d="M58.4382 35.4212C55.8103 39.6489 55.0478 42.916 53.966 47.7949C53.5445 49.925 53.5453 50.9585 53.4792 51.9913V129.752H64.5016V51.9913C64.4929 49.7207 64.2489 48.943 64.009 47.77C63.4707 44.9204 61.6178 39.6973 59.5445 35.4296C59.1484 34.9135 59.1191 34.7614 58.4382 35.4213L58.4382 35.4212Z" fill="#E6E6E6"/>
<path d="M16.2539 35.4212C13.6259 39.6489 12.8635 42.916 11.7817 47.7949C11.3602 49.925 11.3609 50.9585 11.2949 51.9913V129.752H22.3173V51.9913C22.3086 49.7207 22.0646 48.943 21.8247 47.77C21.2864 44.9204 19.4335 39.6973 17.3602 35.4296C16.9641 34.9135 16.9347 34.7614 16.2539 35.4213L16.2539 35.4212Z" fill="#E6E6E6"/>
<path fill-rule="evenodd" clip-rule="evenodd" d="M28.995 72.5991V129.82H1.09896C-2.41594 123.265 3.14762 117.757 8.85543 112.266C28.4739 95.9434 21.9535 87.9297 28.995 72.5991V72.5991Z" fill="#263248"/>
<path d="M16.4527 121.743L14.4722 120.756L12.537 121.829L12.863 119.641L11.2451 118.131L13.427 117.765L14.3623 115.76L15.3848 117.722L17.5807 117.992L16.0308 119.571L16.4527 121.743Z" fill="#DBE460"/>
<path fill-rule="evenodd" clip-rule="evenodd" d="M46.8228 72.5991V129.82H74.7188C78.2337 123.265 72.6702 117.757 66.9624 112.266C47.3439 95.9434 53.8643 87.9297 46.8228 72.5991V72.5991Z" fill="#263248"/>
<path d="M59.3651 121.743L61.3455 120.756L63.2806 121.829L62.9547 119.641L64.5725 118.131L62.3906 117.765L61.4553 115.76L60.4328 117.722L58.2369 117.992L59.7869 119.571L59.3651 121.743Z" fill="#DBE460"/>
<path d="M53.4661 129.771V137.936H64.4884V129.771H53.4661Z" fill="#B98A8A"/>
<path d="M11.2954 129.771V137.936H22.3178V129.771H11.2954Z" fill="#B98A8A"/>
<path d="M30.8907 129.758L28.9856 137.106H46.8119L44.9068 129.758H30.8907Z" fill="#333333"/>
<path d="M11.2954 133.581V135.759H22.3178V133.581H11.2954Z" fill="#CCCCCC"/>
<path d="M53.4661 133.581V135.759H64.4884V133.581H53.4661Z" fill="#CCCCCC"/>
<path d="M11.2954 91.1277V93.3049H22.3178V91.1277H11.2954Z" fill="#808080"/>
<path d="M11.2954 60.646V62.8233H22.3178V60.646H11.2954Z" fill="#808080"/>
<path d="M11.2954 66.3613V68.5386H22.3178V66.3613H11.2954Z" fill="#808080"/>
<path d="M53.4797 66.3613V68.5386H64.5021V66.3613H53.4797Z" fill="#808080"/>
<path d="M53.4797 60.646V62.8233H64.5021V60.646H53.4797Z" fill="#808080"/>
<path d="M53.4797 91.1277V93.3049H64.5021V91.1277H53.4797Z" fill="#808080"/>
</g>
<defs>
<clipPath id="clip0">
<rect width="75.813" height="137.94" fill="white"/>
</clipPath>
</defs>
</svg>
